<svg version="1.1" xmlns="http://www.w3.org/2000/svg" style="display: block;" viewBox="0 0 2048 706" width="743" height="256" preserveAspectRatio="none">
<path transform="translate(0,0)" fill="rgb(0,173,237)" d="M 396.683 226.862 C 411.709 213.413 459.997 157.104 472.017 153.127 C 486.241 166.219 497.567 180.48 510.717 194.461 C 520.598 204.969 533.582 214.211 543.45 224.765 C 568.026 251.05 591.435 276.856 618.747 300.467 C 628.831 309.185 637.268 323.006 648.006 332.182 C 654.465 336.224 666.173 348.315 670.226 354.626 C 661.463 364.93 652.121 373.583 643.138 383.501 C 632.467 395.284 622.833 408.87 610.658 419.34 C 606.615 422.816 601.264 424.913 596.752 428.053 C 581.747 443.109 566.404 462.893 550.989 476.712 C 522.704 502.068 498.734 529.293 472.49 556.35 C 466.413 561.127 455.03 547.538 451.778 543.754 C 423.422 510.768 389.725 482.567 360.723 450.583 C 331.048 417.859 298.757 393.007 271.57 357.558 C 285.879 335.613 326.305 299.833 345.67 280.384 C 352.734 273.291 358.998 265.526 365.777 258.221 C 375.865 247.559 386.169 237.104 396.683 226.862 z"/>
<path transform="translate(0,0)" fill="rgb(254,254,254)" d="M 396.683 226.862 C 411.709 213.413 459.997 157.104 472.017 153.127 C 486.241 166.219 497.567 180.48 510.717 194.461 C 520.598 204.969 533.582 214.211 543.45 224.765 C 568.026 251.05 591.435 276.856 618.747 300.467 C 628.831 309.185 637.268 323.006 648.006 332.182 C 654.465 336.224 666.173 348.315 670.226 354.626 C 661.463 364.93 652.121 373.583 643.138 383.501 C 632.467 395.284 622.833 408.87 610.658 419.34 C 606.615 422.816 601.264 424.913 596.752 428.053 C 595.886 426.884 581.747 419.482 578.331 415.436 C 564.339 398.867 549.506 383.684 534.391 368.196 C 525.594 375.886 517.181 384.005 509.182 392.522 C 499.252 403.229 487.687 420.119 474.998 426.422 C 451.501 411.792 423.769 371.122 398.159 350.674 C 415.034 336.291 440.708 306.89 456.446 289.712 C 445.108 282.944 403.417 238.003 396.683 226.862 z"/>
<path transform="translate(0,0)" fill="rgb(0,29,67)" d="M 396.683 226.862 C 411.709 213.413 459.997 157.104 472.017 153.127 C 461.428 164.322 448.957 175.596 438.086 186.974 C 430.557 194.854 413.245 214.419 405.61 219.89 C 424.362 239.926 452.222 275.011 474.585 289.294 C 455.9 308.011 436.847 326.434 419.55 346.432 C 418.453 347.701 417.362 349.071 416.204 350.268 C 435.654 373.327 455.865 391.205 476.54 412.152 C 491.141 396.389 517.551 361.45 534.333 352.573 C 547.819 361.252 564.712 382.813 575.602 394.934 C 584.335 404.472 593.557 413.548 603.232 422.128 C 619.376 407.063 632.564 393.26 647.015 376.545 C 653.251 369.332 662.147 361.345 667.895 354.044 C 663.87 349.711 650.586 336.072 648.006 332.182 C 654.465 336.224 666.173 348.315 670.226 354.626 C 661.463 364.93 652.121 373.583 643.138 383.501 C 632.467 395.284 622.833 408.87 610.658 419.34 C 606.615 422.816 601.264 424.913 596.752 428.053 C 595.886 426.884 581.747 419.482 578.331 415.436 C 564.339 398.867 549.506 383.684 534.391 368.196 C 525.594 375.886 517.181 384.005 509.182 392.522 C 499.252 403.229 487.687 420.119 474.998 426.422 C 451.501 411.792 423.769 371.122 398.159 350.674 C 415.034 336.291 440.708 306.89 456.446 289.712 C 445.108 282.944 403.417 238.003 396.683 226.862 z"/>
<path transform="translate(0,0)" fill="rgb(47,196,240)" d="M 1006.02 298.835 C 1040.72 293.264 1073.44 316.684 1079.36 351.333 C 1085.27 385.982 1062.18 418.932 1027.59 425.193 C 992.514 431.543 958.994 408.05 952.993 372.91 C 946.993 337.769 970.818 304.485 1006.02 298.835 z M 1020.9 398.443 C 1053.51 386.815 1048.35 322.78 1013.31 325.274 C 1005.26 328.151 998.997 332.066 995.647 340.331 C 988.576 357.778 988.755 389.537 1008.89 398.587 C 1013.33 400.581 1016.45 399.458 1020.9 398.443 z"/>
<path transform="translate(0,0)" fill="rgb(47,196,240)" d="M 799.451 256.36 C 802.173 256.042 804.908 255.85 807.647 255.785 C 817.181 255.575 841.435 256.232 848.133 262.674 C 851.477 269.948 849.706 292.731 848.764 301.285 C 844.015 297.748 829.894 291.743 823.764 289.896 C 763.092 271.606 742.71 376.708 800.877 389.147 C 818.72 392.963 833.674 386.648 849.016 378.707 L 849.45 392.033 C 850.2 409.713 853.213 421.631 830.265 423.642 C 804.297 425.917 772.818 427.807 751.348 410.034 C 718.59 382.917 713.903 321.827 740.188 288.817 C 754.784 270.786 776.164 258.584 799.451 256.36 z"/>
<path transform="translate(0,0)" fill="rgb(254,254,254)" d="M 1672.17 252.938 L 1708.8 252.727 C 1707.57 272.516 1708.89 297.424 1708.33 318.414 C 1722.15 308.634 1730.12 303.377 1747.8 303.199 C 1762.94 302.405 1775.9 316.863 1778.21 331.248 C 1782.85 360.226 1781.82 394.788 1781.16 424.116 C 1769.67 424.351 1757.25 424.838 1745.85 424.282 C 1745.2 411.221 1745.46 395.728 1745.39 382.5 C 1745.5 370.799 1747.42 347.498 1742.03 337.548 C 1738.64 331.299 1734.16 330.785 1727.76 329.026 C 1724.06 330.019 1719.61 331.573 1715.89 332.771 C 1704.75 352.243 1708.22 399.907 1708.2 424.316 C 1696.63 424.469 1684.55 424.81 1673.04 424.316 C 1672.52 367.09 1673.52 310.289 1672.17 252.938 z"/>
<path transform="translate(0,0)" fill="rgb(254,254,254)" d="M 1488.28 304.326 C 1490.7 304.197 1493.12 304.116 1495.54 304.083 C 1508.06 303.949 1520.7 307.084 1529.59 316.261 C 1546.81 334.046 1545.93 354.645 1546.01 377.185 C 1522.98 376.498 1495.23 377.049 1472.14 377.328 C 1476.56 388.831 1478.79 393.518 1488.23 401.275 C 1507.61 403.095 1517.47 401.725 1534.39 391.525 L 1536.19 392.285 C 1536.31 402.149 1536.15 412.015 1535.74 421.871 C 1513.45 426.394 1473.09 431.668 1454.44 416.24 C 1429.78 395.843 1429.14 348.693 1448.96 324.614 C 1460.12 311.067 1471.29 306.107 1488.28 304.326 z M 1498.34 355.498 L 1513.92 355.006 C 1508.21 336.902 1507.89 330.079 1486.6 331.199 C 1480.91 334.679 1472.19 346.44 1474.95 353.065 C 1479.48 357.2 1490.94 355.22 1498.34 355.498 z"/>
<path transform="translate(0,0)" fill="rgb(254,254,254)" d="M 1334.87 262.485 C 1352.52 261.551 1373.77 265.457 1392.27 263.606 C 1403.05 262.526 1417.65 261.998 1428.45 262.382 C 1428.9 271.957 1428.72 282.938 1428.79 292.622 C 1414.05 293.282 1398.51 292.605 1383.41 293.185 C 1382.93 332.73 1383.29 373.017 1383.26 412.621 L 1383.23 424.147 C 1370.88 424.414 1358.18 424.86 1345.87 424.441 L 1345.88 291.927 C 1332.04 293.241 1314.84 293.016 1300.72 293.165 C 1300.43 284.131 1300.68 273.83 1300.69 264.698 C 1308.39 264.613 1328.06 264.695 1334.87 262.485 z"/>
<path transform="translate(0,0)" fill="rgb(47,196,240)" d="M 1144.54 388.564 C 1128.43 370.536 1102.58 375.84 1092.09 351.104 C 1076 313.183 1117.62 295.359 1149.31 297.988 C 1176.81 300.268 1172.63 307.762 1170 333.123 C 1159.17 330.039 1142.93 323.522 1132.2 327.25 C 1128.1 328.675 1126.62 337.041 1128.8 340.894 C 1142.36 351.946 1163.45 351.595 1174.75 366.254 C 1188.15 381.989 1177.98 403.313 1164 414.983 C 1149.78 426.853 1123.8 426.479 1105.61 424.145 C 1100.13 423.415 1094.65 422.621 1089.19 421.763 C 1086.73 418.802 1087.35 392.887 1087.58 387.669 C 1094.36 388.674 1098.06 389.767 1104.66 391.769 C 1111.29 394.252 1118.51 396.799 1125 399.517 C 1134.8 396.779 1137.05 395.468 1144.54 388.564 z"/>
<path transform="translate(0,0)" fill="rgb(0,173,237)" d="M 1087.58 387.669 C 1094.36 388.674 1098.06 389.767 1104.66 391.769 C 1090.98 393.158 1093.4 411.089 1089.19 421.763 C 1086.73 418.802 1087.35 392.887 1087.58 387.669 z"/>
<path transform="translate(0,0)" fill="rgb(47,196,240)" d="M 1233.67 298.389 C 1246.95 297.572 1258.89 299.067 1271.86 301.491 C 1272.41 312.2 1272.33 323.674 1272.3 334.403 C 1259.02 329.845 1239.76 320.992 1227.33 330.889 C 1219.92 345.138 1264.19 353.119 1271.33 360.095 C 1275.5 364.166 1278.91 376.94 1278.95 382.466 C 1279.2 419.809 1254.19 424.295 1223.44 425.691 C 1211.12 425.396 1202.95 423.971 1191.12 421.19 C 1190.31 409.878 1189.74 398.549 1189.41 387.213 C 1202.3 391.036 1237.49 410.421 1243.2 388.281 C 1240.31 377.76 1214.64 374.381 1204.96 365.555 C 1197.8 359.024 1192.2 354.702 1190.52 343.801 C 1188.98 333.829 1193.94 321.067 1199.93 313.393 C 1209.32 301.343 1219.95 300.248 1233.67 298.389 z"/>
<path transform="translate(0,0)" fill="rgb(254,254,254)" d="M 1614.38 304.348 C 1625.62 302.956 1639.79 304.847 1650.9 306.352 C 1651.26 315.531 1651.01 326.347 1651.04 335.652 C 1626.09 330.004 1602.98 324.784 1595.95 357.031 C 1592.52 372.79 1597.98 391.6 1613.22 399.062 C 1625.4 405.026 1639.98 399.68 1651.82 395.458 C 1651.19 401.444 1651.33 408.296 1651.31 414.379 C 1651.31 416.628 1651.13 418.889 1650.99 421.134 C 1649.49 423.077 1648.08 424.615 1645.23 424.766 C 1623.23 425.931 1595.34 430.521 1576.93 415.476 C 1550.78 394.11 1551.22 349.894 1571.71 324.84 C 1583.9 309.936 1596.05 306.198 1614.38 304.348 z"/>
<path transform="translate(0,0)" fill="rgb(47,196,240)" d="M 931.073 298.213 C 933.259 298.024 935.449 297.871 937.641 297.754 C 941.323 297.574 942.875 297.543 945.629 300.051 C 949.086 306.049 945.391 320.53 945.325 330.638 C 944.621 330.631 943.918 330.628 943.215 330.629 C 932.494 330.645 914.789 330.61 912.645 344.608 C 908.793 369.765 910.427 397.029 910.734 422.633 L 871.936 422.872 C 870.583 422.629 870.869 422.56 869.662 421.519 C 868.154 385.084 869.701 341.346 869.103 303.817 C 882.922 303.395 897.151 303.665 911.005 303.762 L 910.373 316.69 C 917.328 305.494 918.713 302.699 931.073 298.213 z"/>
</svg>